HIERARCHY
ROOT Hips
{
	OFFSET 0.00 0.00 0.00
	CHANNELS 6 Xposition Yposition Zposition Xrotation Yrotation Zrotation
	JOINT LeftUpLeg
	{
		OFFSET 3.29906 0.00000 0.00000
		CHANNELS 3 Xrotation Yrotation Zrotation
		JOINT LeftLeg
		{
			OFFSET 0.00000 -16.90256 0.00000
			CHANNELS 3 Xrotation Yrotation Zrotation
			JOINT LeftFoot
			{
				OFFSET 0.00000 -16.69398 0.00000
				CHANNELS 3 Xrotation Yrotation Zrotation
				JOINT LeftToeBase
				{
					OFFSET 0.00000 -1.46932 5.48360
					CHANNELS 3 Xrotation Yrotation Zrotation
					End Site
					{
						OFFSET 0.00000 0.00000 2.95275
					}
				}
			}
		}
	}
	JOINT RightUpLeg
	{
		OFFSET -3.29906 0.00000 0.00000
		CHANNELS 3 Xrotation Yrotation Zrotation
		JOINT RightLeg
		{
			OFFSET 0.00000 -16.90256 0.00000
			CHANNELS 3 Xrotation Yrotation Zrotation
			JOINT RightFoot
			{
				OFFSET 0.00000 -16.69398 0.00000
				CHANNELS 3 Xrotation Yrotation Zrotation
				JOINT RightToeBase
				{
					OFFSET 0.00000 -1.46932 5.48360
					CHANNELS 3 Xrotation Yrotation Zrotation
					End Site
					{
						OFFSET 0.00000 0.00000 2.95275
					}
				}
			}
		}
	}
	JOINT Spine
	{
		OFFSET 0.00000 0.03937 0.00000
		CHANNELS 3 Xrotation Yrotation Zrotation
		JOINT Spine1
		{
			OFFSET 0.00000 7.07715 0.00000
			CHANNELS 3 Xrotation Yrotation Zrotation
			JOINT Neck
			{
				OFFSET 0.00000 9.58345 0.00000
				CHANNELS 3 Xrotation Yrotation Zrotation
				JOINT Head
				{
					OFFSET 0.00000 6.23786 0.00000
					CHANNELS 3 Xrotation Yrotation Zrotation
					End Site
					{
						OFFSET 0.00000 4.52755 0.00000
					}
				}
			}
			JOINT LeftShoulder
			{
				OFFSET 0.00000 9.58345 0.00000
				CHANNELS 3 Xrotation Yrotation Zrotation
				JOINT LeftArm
				{
					OFFSET 7.67467 -0.00003 0.00000
					CHANNELS 3 Xrotation Yrotation Zrotation
					JOINT LeftForeArm
					{
						OFFSET 12.04206 -0.00004 0.00000
						CHANNELS 3 Xrotation Yrotation Zrotation
						JOINT LeftHand
						{
							OFFSET 9.71053 -0.00004 0.00000
							CHANNELS 3 Xrotation Yrotation Zrotation
							JOINT LeftHandThumb
							{
								OFFSET 0.00000 0.00000 0.00000
								CHANNELS 3 Xrotation Yrotation Zrotation
								End Site
								{
									OFFSET 0.00000 0.00000 3.93700
								}
							}
							JOINT L_Wrist_End
							{
								OFFSET 3.93700 -0.00001 0.00000
								CHANNELS 3 Xrotation Yrotation Zrotation
							}
						}
					}
				}
			}
			JOINT RightShoulder
			{
				OFFSET 0.00000 9.58345 0.00000
				CHANNELS 3 Xrotation Yrotation Zrotation
				JOINT RightArm
				{
					OFFSET -7.67467 -0.00003 0.00000
					CHANNELS 3 Xrotation Yrotation Zrotation
					JOINT RightForeArm
					{
						OFFSET -12.04206 -0.00004 0.00000
						CHANNELS 3 Xrotation Yrotation Zrotation
						JOINT RightHand
						{
							OFFSET -9.71053 -0.00004 0.00000
							CHANNELS 3 Xrotation Yrotation Zrotation
							JOINT RightHandThumb
							{
								OFFSET 0.00000 0.00000 0.00000
								CHANNELS 3 Xrotation Yrotation Zrotation
								End Site
								{
									OFFSET 0.00000 0.00000 3.93700
								}
							}
							JOINT R_Wrist_End
							{
								OFFSET -5.39369 -0.00002 0.00000
								CHANNELS 3 Xrotation Yrotation Zrotation
							}
						}
					}
				}
			}
		}
	}
}
MOTION
Frames: 15
Frame Time: 0.008333
 5.0971 38.8223 -14.8071 157.5755 60.6467 -129.1125 -9.6336 38.7700 1.8610 48.6581 -0.0000 -0.0000 25.6682 -26.1687 -13.4481 -9.3536 0.0000 -0.0000 -107.2559 -8.8760 -2.8889 120.9262 0.0000 0.0000 -26.1938 0.4459 12.4039 -7.9346 0.0000 0.0000 -0.1662 -12.3715 -8.8688 22.1614 20.9520 38.9600 -0.6637 12.6218 9.0666 -39.9363 -21.6599 -24.2582 13.4479 23.3936 31.1126 -30.1078 -11.4420 -42.7948 -0.0002 -45.1302 -0.0001 -25.0661 -17.6393 -5.5845 -0.0000 0.0000 0.0000 -0.0000 0.0000 0.0000 18.1114 -7.1559 -26.3497 -67.2255 3.8761 42.1646 -0.0001 16.3271 0.0000 27.5829 2.6266 -43.8307 0.0000 0.0000 -0.0000 0.0000 0.0000 -0.0000
 5.9272 39.1208 -14.8245 158.1673 61.4349 -128.4852 -10.6466 37.4340 3.4716 54.4551 -0.0000 0.0000 24.3502 -28.1178 -13.3575 -9.6809 0.0000 -0.0000 -107.6138 -10.4666 -3.0093 117.1822 -0.0000 0.0000 -25.7640 2.0547 13.8190 -7.8849 -0.0000 -0.0000 -0.1279 -11.7101 -8.5510 22.7976 20.3216 38.3940 -1.0533 12.2587 8.9145 -38.7168 -21.7632 -24.2855 14.0484 22.9584 30.3580 -30.0750 -11.5532 -44.1433 -0.0002 -41.0077 -0.0001 -24.1997 -17.8178 -5.1692 -0.0000 0.0000 0.0000 -0.0000 0.0000 0.0000 18.6082 -8.3733 -25.6537 -66.9604 4.4873 43.0352 -0.0001 15.9411 0.0000 27.8419 2.8175 -46.0769 0.0000 -0.0000 0.0000 0.0000 -0.0000 0.0000
 6.7359 39.4317 -14.8545 158.2456 62.3957 -127.3054 -11.4417 36.4808 4.8271 60.0738 -0.0000 0.0000 23.1292 -30.2787 -13.0352 -9.8536 -0.0000 -0.0000 -107.6074 -12.1999 -3.2046 113.2015 0.0000 0.0000 -25.2008 3.1688 14.2514 -8.1210 0.0000 0.0000 0.0462 -11.2866 -8.6424 23.1001 20.0066 38.2665 -0.9662 12.2252 8.6528 -38.1982 -21.8370 -24.9523 15.1370 22.3544 28.9185 -29.1969 -12.1050 -44.9178 -0.0002 -38.0037 -0.0001 -20.8280 -18.2057 -3.3737 -0.0000 0.0000 -0.0000 -0.0000 0.0000 -0.0000 18.7878 -9.2484 -25.4136 -65.9362 5.2293 43.7637 -0.0001 15.5037 0.0000 27.8466 3.3515 -48.5502 -0.0000 -0.0000 -0.0000 -0.0000 -0.0000 -0.0000
 7.5223 39.7391 -14.8962 157.5114 63.1805 -125.3584 -12.6562 35.8131 6.1258 65.8328 -0.0000 0.0000 22.7780 -31.9686 -11.2065 -10.1088 0.0000 0.0000 -107.8060 -14.6813 -3.5408 109.0082 -0.0000 0.0000 -24.5427 2.1753 13.3748 -7.7763 0.0000 -0.0000 -0.1140 -10.6788 -8.5144 23.6171 19.6051 37.7242 -1.1250 11.7457 8.3715 -37.2390 -21.4860 -25.0446 15.4386 21.8848 28.0135 -28.6923 -12.6593 -46.3157 -0.0001 -34.6006 -0.0000 -19.2828 -18.7086 -3.7186 -0.0000 -0.0000 -0.0000 -0.0000 -0.0000 -0.0000 18.9586 -10.2394 -25.1031 -65.3240 5.9532 44.6401 -0.0001 14.9004 0.0000 28.0227 4.0268 -50.4012 -0.0000 -0.0000 -0.0000 -0.0000 -0.0000 -0.0000
 8.2956 40.0422 -14.9492 156.6859 64.0040 -123.4256 -13.9176 35.1192 7.4093 71.6834 -0.0000 0.0000 22.9215 -32.4829 -8.1692 -10.5468 -0.0000 -0.0000 -107.8274 -16.9546 -4.2126 105.1811 -0.0000 0.0000 -23.3177 1.5524 12.4230 -7.7022 0.0000 -0.0000 -0.2342 -9.9021 -8.1511 24.3173 18.9790 37.0354 -1.3036 11.5804 8.0022 -36.4916 -21.3453 -25.1423 15.2276 21.3519 27.2467 -27.3480 -13.7951 -47.5585 -0.0001 -31.6334 -0.0000 -18.2356 -19.1472 -4.3603 0.0000 -0.0000 -0.0000 0.0000 -0.0000 -0.0000 19.3368 -11.3125 -24.9783 -65.1924 6.1413 45.7278 -0.0001 14.5516 0.0000 28.2025 4.6637 -51.7298 0.0000 -0.0000 -0.0000 0.0000 -0.0000 -0.0000
 9.0496 40.3591 -15.0145 155.6744 64.7926 -121.2646 -14.9365 34.4585 8.3078 77.3341 -0.0000 0.0000 22.5477 -31.3787 -5.8488 -11.0372 0.0000 0.0000 -107.6876 -19.2342 -5.1397 101.3538 0.0000 0.0000 -21.8651 0.5910 11.5103 -7.7040 -0.0000 -0.0000 -0.1946 -9.5035 -8.0327 24.6110 18.6062 36.6872 -1.1175 11.3884 7.6782 -36.2313 -21.0041 -25.7252 15.4402 20.7418 26.0881 -24.9065 -15.7752 -48.3443 -0.0001 -29.8247 -0.0000 -15.2465 -19.3552 -3.3035 -0.0000 -0.0000 0.0000 -0.0000 -0.0000 0.0000 19.2721 -11.9958 -25.1502 -63.8049 7.0458 46.4411 -0.0001 13.7430 0.0000 28.5072 4.6748 -53.4781 0.0000 0.0000 -0.0000 0.0000 0.0000 -0.0000
 9.7961 40.6810 -15.0912 154.4835 65.5320 -118.8386 -15.8319 33.8840 8.8585 82.9772 -0.0000 0.0000 21.6485 -28.6204 -4.1984 -11.1693 -0.0000 -0.0000 -107.5765 -21.4408 -6.2415 97.6725 -0.0000 0.0000 -20.1947 -0.5929 10.3912 -7.6212 0.0000 0.0000 -0.1571 -9.0846 -7.9195 24.8466 18.2051 36.3117 -0.8661 11.3437 7.2846 -36.2480 -20.8677 -26.3982 15.6251 20.0974 25.0770 -22.1390 -17.9413 -49.1086 -0.0001 -28.8265 -0.0000 -12.8726 -18.6488 -2.7419 0.0000 0.0000 0.0000 0.0000 0.0000 0.0000 19.1054 -12.6146 -25.4583 -62.0413 7.9831 47.0110 -0.0000 13.1614 0.0000 28.1441 5.3895 -55.3137 0.0000 0.0000 -0.0000 0.0000 0.0000 -0.0000
 10.5362 41.0027 -15.1882 153.0904 66.2783 -116.1027 -16.5257 33.5270 9.1495 88.5162 -0.0000 0.0000 20.4581 -24.5204 -3.0199 -11.1961 -0.0000 0.0000 -107.4715 -23.4867 -7.3956 94.1716 -0.0000 0.0000 -18.6762 -1.8812 9.6144 -7.7215 0.0000 -0.0000 -0.1691 -8.5412 -7.8019 25.2040 17.6450 35.8020 -0.5157 11.4268 6.8641 -36.6060 -20.8963 -27.1106 15.8792 19.4808 24.2354 -19.3069 -19.9097 -49.9030 -0.0001 -28.8256 -0.0000 -10.9329 -17.2167 -2.2150 0.0000 -0.0000 -0.0000 0.0000 -0.0000 -0.0000 18.8141 -13.1651 -25.8508 -60.4437 8.4612 47.6915 -0.0000 12.8760 0.0000 28.0081 6.1505 -56.6976 0.0000 0.0000 -0.0000 0.0000 0.0000 -0.0000
 11.2670 41.3295 -15.3006 151.2921 67.0170 -112.8748 -17.0534 33.4892 9.2234 93.8490 -0.0000 0.0000 19.1605 -19.4201 -1.8433 -11.2104 0.0000 0.0000 -107.3271 -25.3291 -8.5052 90.7985 -0.0000 0.0000 -17.2526 -3.0041 9.1381 -7.7462 -0.0000 0.0000 -0.2408 -7.8321 -7.6814 25.6975 17.0207 35.1674 -0.2864 11.3336 6.5020 -37.0163 -20.7846 -27.7980 16.1418 18.9285 23.4910 -16.6057 -21.6693 -50.8351 -0.0001 -29.6351 -0.0000 -8.7277 -15.8652 -1.2928 -0.0000 -0.0000 -0.0000 -0.0000 -0.0000 -0.0000 18.3938 -13.6080 -26.4300 -58.5930 8.5803 48.3602 -0.0000 13.0193 0.0000 27.7892 6.8516 -57.6758 -0.0000 0.0000 0.0000 -0.0000 0.0000 0.0000
 12.0033 41.6463 -15.4277 149.1751 67.8038 -109.3352 -17.4634 33.6973 9.3209 99.0475 -0.0000 0.0000 17.7478 -13.8763 -0.0502 -11.2090 -0.0000 -0.0000 -107.1685 -26.9107 -9.5663 87.6397 -0.0000 0.0000 -15.9013 -3.6070 8.1993 -7.2738 0.0000 0.0000 -0.5341 -6.5592 -7.1360 26.8666 15.8754 33.9666 -0.4911 11.1728 6.1384 -37.0319 -20.7350 -27.9333 15.9817 18.6755 23.0923 -14.8239 -22.9497 -52.1803 -0.0001 -30.3241 -0.0000 -8.1765 -15.0830 -1.4441 -0.0000 0.0000 0.0000 -0.0000 0.0000 0.0000 17.9080 -13.9752 -26.8970 -57.2524 8.0581 49.2374 -0.0001 13.3645 0.0000 28.0588 7.7296 -58.0377 0.0000 0.0000 -0.0000 0.0000 0.0000 -0.0000
 12.7473 41.9605 -15.5536 147.0026 68.6004 -105.5106 -17.4599 34.0272 9.1483 103.8729 0.0000 0.0000 16.0169 -8.5798 1.7274 -11.1853 0.0000 0.0000 -106.8691 -28.0674 -10.4984 84.5247 0.0000 0.0000 -14.6443 -3.9816 6.6057 -7.1568 0.0000 -0.0000 -0.6214 -5.7158 -7.1224 27.6030 15.0294 33.1576 -0.1520 11.1573 5.8355 -37.7096 -20.4889 -28.5842 16.4753 18.4113 22.3374 -12.7377 -24.6699 -53.1817 -0.0001 -31.6541 -0.0000 -5.9835 -14.4638 -0.2986 -0.0000 0.0000 -0.0000 -0.0000 0.0000 -0.0000 17.5835 -14.1249 -27.3451 -55.7938 7.6208 49.7541 -0.0001 13.6654 0.0000 28.4243 8.2605 -58.8512 -0.0000 0.0000 -0.0000 -0.0000 0.0000 -0.0000
 13.4994 42.2572 -15.6802 144.1541 69.4136 -101.3217 -17.5733 34.4921 9.4959 108.5569 -0.0000 0.0000 14.3360 -3.9825 4.5343 -11.2875 0.0000 0.0000 -106.4123 -29.1071 -11.2030 81.5586 -0.0000 0.0000 -13.1851 -4.0277 5.7923 -6.7986 0.0000 0.0000 -1.0056 -4.4151 -6.6127 28.9854 13.9353 32.0050 -0.2867 11.0031 5.4490 -37.7502 -20.2593 -28.6151 16.4894 18.3473 21.8875 -11.2504 -26.3394 -54.3943 -0.0001 -32.4679 -0.0000 -5.5771 -14.3027 -0.3760 -0.0000 0.0000 -0.0000 -0.0000 0.0000 -0.0000 17.4196 -14.3656 -27.5876 -55.1331 6.5258 50.3695 -0.0001 14.3998 0.0000 29.0710 8.6351 -58.7881 0.0000 0.0000 -0.0000 0.0000 0.0000 -0.0000
 14.2578 42.5536 -15.8091 141.2327 70.1432 -96.8332 -17.2654 34.7492 9.4846 112.8362 0.0000 0.0000 12.7740 -1.2819 6.0764 -11.3516 0.0000 0.0000 -105.8620 -29.4537 -11.8079 78.6568 0.0000 0.0000 -11.5173 -3.7837 6.2184 -7.2806 0.0000 -0.0000 -1.2386 -3.3891 -6.4053 30.0324 12.9245 30.9686 -0.0804 10.6914 5.4856 -38.1788 -19.3608 -29.2216 16.9614 18.2882 21.2132 -9.3470 -28.7105 -55.1442 -0.0001 -33.5794 -0.0000 -3.2911 -13.9192 1.2198 -0.0000 0.0000 0.0000 -0.0000 0.0000 0.0000 17.3867 -14.4595 -27.3839 -53.6870 6.9295 50.3051 -0.0001 14.6623 0.0000 28.9618 9.0457 -59.8535 0.0000 0.0000 -0.0000 0.0000 0.0000 -0.0000
 15.0147 42.8306 -15.9382 138.1672 70.7378 -92.1959 -16.9408 34.6927 9.5190 116.8821 -0.0000 0.0000 11.8417 -0.5935 7.3283 -11.2686 0.0000 -0.0000 -105.3971 -29.4250 -12.2739 75.8996 -0.0000 0.0000 -10.1018 -3.6855 5.7023 -7.1686 -0.0000 0.0000 -1.5221 -2.3329 -6.0763 31.0447 11.7388 29.7919 0.3497 10.5690 5.6710 -38.8822 -18.3874 -29.9790 17.5556 18.3607 20.5093 -7.6767 -31.4134 -55.6164 -0.0001 -34.3433 -0.0000 -1.2004 -13.2298 2.2802 0.0000 -0.0000 -0.0000 0.0000 -0.0000 -0.0000 17.6986 -14.6719 -26.9367 -52.7848 7.2879 50.2245 -0.0001 14.8397 0.0000 29.0628 9.3949 -60.8475 0.0000 -0.0000 0.0000 0.0000 -0.0000 0.0000
 15.7887 43.0762 -16.0304 134.6607 71.3894 -87.6467 -16.8094 34.3119 10.3716 120.7279 0.0000 0.0000 11.7095 -1.6256 8.7818 -11.2894 -0.0000 0.0000 -104.2086 -28.8834 -12.4656 72.1690 -0.0000 0.0000 -6.0419 -2.1203 13.3290 -13.4181 -0.0000 -0.0000 -1.9534 -1.2415 -5.6369 32.4591 10.8767 28.9773 0.2739 10.4779 5.5929 -38.8517 -17.6229 -30.2002 17.4110 18.4528 20.1064 -6.2806 -34.1006 -56.4627 -0.0001 -34.4264 -0.0000 -0.9604 -12.6488 2.0698 -0.0000 0.0000 0.0000 -0.0000 0.0000 0.0000 17.7072 -15.0194 -26.5565 -52.0450 7.6425 50.2534 -0.0001 15.0040 0.0000 29.1337 9.8565 -61.3385 -0.0000 -0.0000 -0.0000 -0.0000 -0.0000 -0.0000
